<svg xmlns="http://www.w3.org/2000/svg" viewBox="0 0 1842.68 788.34"><defs><linearGradient id="A" x1="1005.1" y1="63.15" x2="1005.1" y2="367.39" gradientUnits="userSpaceOnUse"><stop offset=".51" stop-color="#fff"/><stop offset="1"/></linearGradient><mask id="B" x="-26.28" y="0" width="1888.18" height="788.34" maskUnits="userSpaceOnUse"><path d="M61 63.15H1949.2v304.23H61z" fill="url(#A)" transform="translate(-87.29 -62.06)"/></mask></defs><g mask="url(#B)"><g opacity=".3" fill="none" stroke="#ddd" stroke-miterlimit="10"><path d="M1662.13 583.35l-73.7 43.18 52.65 85.3 21.06-128.48zm-612.9-274.85l-10.53-18.96-70.56 78.98 81.1-60.02z"/><path d="M1056.6 411.7l-7.38-68.45-81.1 25.27 88.47 43.18zm755.08-352.8l-84.25 10.53 50.55 159.02 33.7-169.55z"/><path d="M1840.1 498.05l-127.43-44.23 24.22 117.94 103.2-73.7zm0-132.7L1811.68 58.9l-33.7 169.55 62.13 136.9z"/><path d="M1840.1 365.36l-62.13-136.9 24.22 95.83 37.9 41.08zm-2.1 33.7l-21.06-44.24-50.55 17.9 71.6 26.33z"/><path d="M1816.94 354.82l-14.74-30.54-35.8 48.45 50.55-17.9zm-5.26-295.92L1765.34.98l-37.9 68.45 84.25-10.53z"/><path d="M1802.2 324.28l-24.22-95.83-51.6 157.97 75.83-62.14z"/><path d="M1802.2 324.28l-75.83 62.14 40.02-13.7 35.8-48.45zm-35.8 48.45l-40.02 13.7 34.76 37.9 5.26-51.6zm-227.48 321.2l-119-8.43 81.1 90.57 37.9-82.14z"/><path d="M1419.92 685.5l-94.78 17.9 75.82 72.67 18.96-90.57z"/><path d="M1377.8 785.55l-52.65-82.15-120.06 82.15h172.7z"/><path d="M1205.08 785.55l-57.92-54.77-141.12 21.07 199.04 33.7z"/><path d="M1205.08 785.55l-30.54-85.3-27.38 30.53 57.92 54.77zM1045 632.85l-92.67 63.18 53.7 55.82 38.97-119zm11.6-221.15l-88.47-43.18 47.4 67.4 41.08-24.22zm721.38-183.25l-50.55-159.02-54.76 82.14 105.3 76.88z"/><path d="M1777.98 228.45l-141.12 127.43 89.5 30.54 51.6-157.97z"/><path d="M1777.98 228.45l-105.3-76.88-71.62 111.63L1778 228.45zm-65.3 225.37l-48.44 15.8 11.58 91.62 36.86-107.4zm13.7-67.4l-89.5-30.54 22.1 38.96 67.4-8.42z"/><path d="M1726.37 386.42l-67.4 8.42 53.7 58.98 13.7-67.4zm1.06-317l-67.4 10.53 12.64 71.6 54.76-82.14z"/><path d="M1736.9 571.76l-74.77 11.6 58.98 77.93 15.8-89.52zm-64.23-420.2l-12.64-71.6-18.96 44.23 31.6 27.38zm40 302.25l-53.7-58.98 5.27 74.77 48.44-15.8z"/><path d="M1664.24 469.6l-5.27-74.77-55.8-1.05 61.08 75.82z"/><path d="M1664.24 469.6l-61.08-75.82-24.22 47.4 85.3 28.43z"/><path d="M1664.24 469.6l-85.3-28.43-18.96 152.7 104.26-124.27z"/><path d="M1675.82 561.23l-11.58-91.62-104.26 124.27 115.84-32.65z"/><path d="M1578.94 441.18l-68.45 99 49.5 53.7 18.96-152.7zm81.1-361.22L1600 91.55l41.07 32.64 18.96-44.23z"/><path d="M1662.13 583.35l-102.15 10.53 28.44 32.65 73.7-43.18zm-3.16-188.5l-22.1-38.96-33.7 37.9 55.8 1.05z"/><path d="M1636.86 355.88l-35.8-92.68-43.17 15.8 78.98 76.88z"/><path d="M1636.86 355.88l-69.5 15.8 35.8 22.12 33.7-37.9z"/><path d="M1603.16 393.8l-35.8-22.12 11.58 69.5 24.22-47.4zm-14.74 232.73l-28.44-32.65-35.8 26.33 64.24 6.32z"/><path d="M1578.94 441.18l-11.58-69.5-13.7-8.42 25.28 77.93z"/><path d="M1578.94 441.18l-134.8-18.96 66.35 117.95 68.45-99z"/><path d="M1510.5 540.17l-66.35-117.95-20 36.86 86.36 81.1zm49.48 53.7l-49.5-53.7 13.7 80.04 35.8-26.33z"/><path d="M1524.18 620.2l-13.7-80.04-48.45 20 62.14 60.03z"/><path d="M1538.92 693.93l-14.74-73.72-104.26 65.3 119 8.43zm-28.42-153.76l-86.36-81.1 37.9 101.1 48.45-20z"/><path d="M1524.18 620.2l-62.14-60.03-42.12 34.75 104.26 25.28z"/><path d="M1524.18 620.2l-104.26-25.28v90.57l104.26-65.3zm-62.14-60.02l-37.9-101.1-38.96 57.92 76.87 43.18z"/><path d="M1419.92 685.5v-90.57l-14.75 3.16 14.75 87.4z"/><path d="M1462.04 560.18L1385.17 517l34.75 77.93 42.12-34.75z"/><path d="M1419.92 594.93L1385.17 517l20 81.1 14.75-3.16z"/><path d="M1419.92 685.5l-14.75-87.4-44.23 68.45 58.98 18.96z"/><path d="M1419.92 685.5l-58.98-18.96-35.8 36.86 94.78-17.9zm4.2-226.42l-28.43-7.37-10.53 65.3 38.96-57.92z"/><path d="M1405.17 598.1l-20-81.1-29.5 3.16 49.5 77.93z"/><path d="M1405.17 598.1l-49.5-77.93-15.8 74.77 65.3 3.16z"/><path d="M1405.17 598.1l-65.3-3.16 21.06 71.6 44.23-68.45z"/><path d="M1355.68 520.16l-69.5 13.7 53.7 61.08 15.8-74.77z"/><path d="M1355.68 520.16l-21.06-13.7-48.45 27.38 69.5-13.7zm5.26 146.38l-21.06-71.6-14.74 108.47 35.8-36.86z"/><path d="M1339.88 594.93l-127.43 63.2 112.7 45.28 14.74-108.47z"/><path d="M1339.88 594.93l-53.7-61.08-73.72 124.27 127.43-63.2z"/><path d="M1334.62 506.47l-65.3-9.48 16.85 36.86 48.45-27.38zm-9.48 196.93l-114.8-22.1-5.27 104.26 120.06-82.15z"/><path d="M1325.14 703.4l-112.7-45.28-2.1 23.17 114.8 22.1zm-38.97-169.55L1269.32 497l-131.64 48.45 148.5-11.6z"/><path d="M1286.17 533.85l-148.5 11.6 74.77 112.68 73.72-124.27zm-75.82 147.45l-35.8 18.96 30.54 85.3 5.27-104.26z"/><path d="M1174.54 700.25l-36.86-154.8-92.67 87.4 129.53 67.4z"/><path d="M1212.45 658.12l-37.9 42.13 35.8-18.96 2.1-23.17z"/><path d="M1212.45 658.12l-74.77-112.68 36.86 154.8 37.9-42.13z"/><path d="M1137.68 545.44l-24.22-5.27-68.45 92.68 92.67-87.4z"/><path d="M1174.54 700.25L1045 632.85l102.15 97.93 27.38-30.53z"/><path d="M1147.16 730.78L1045 632.85l-38.97 119 141.12-21.07zM1130.3 38.9l-99-25.27 3.16 68.45 95.83-43.18zm-16.84 501.27l-40.02-52.65-92.67 58.97 132.7-6.32z"/><path d="M1113.46 540.17l-132.7 6.32 64.24 86.36 68.45-92.68z"/><path d="M1073.44 487.52l-57.92-51.6-34.75 110.58 92.67-58.97zm-38.96-405.45l-3.16-68.45-44.23 68.45h47.4zM1045 632.85L944.97 683.4l7.37 12.64 92.67-63.18z"/><path d="M1045 632.85l-64.24-86.36-49.5 47.4L1045 632.85z"/><path d="M1045 632.85l-113.74-38.97 13.7 89.5L1045 632.85zm-13.68-619.23L957.6 48.37l29.5 33.7 44.23-68.45zm7.38 275.9l-33.7-71.6-107.4 86.35 141.1-14.74z"/><path d="M1038.7 289.53l-141.1 14.74 70.55 64.24 70.56-78.98zm-7.38-275.9L955.5 7.3l2.1 41.07 73.72-34.75zM1005 217.92L987.1 82.07 853.34 204.23l151.65 13.7zm10.52 217.98l-128.48-31.6 93.73 142.17 34.75-110.58z"/><path d="M1015.52 435.9l-47.4-67.4-81.1 35.8 128.48 31.6zm-34.75 110.6l-93.73-142.17-42.12 82.14 135.85 60.03zM1005 217.92l-151.65-13.7 44.24 100.04L1005 217.9z"/><path d="M987.1 82.07l-29.5-33.7-104.26 155.86L987.1 82.07zm-6.33 464.43l-135.85-60.03 86.35 107.42 49.5-47.4z"/><path d="M957.6 48.37L851.24 15.72l2.1 188.5L957.6 48.37zm10.53 320.13l-70.55-64.24-35.8 46.34 106.36 17.9z"/><path d="M968.13 368.5l-106.36-17.9 25.27 53.7 81.1-35.8zM957.6 48.37l-63.2-45.3-43.17 12.64L957.6 48.37z"/><path d="M957.6 48.37L955.5 7.3l-61.1-4.22 63.2 45.3zM944.97 683.4l-13.7-89.5-23.16 116.9 36.86-27.4zm-13.7-89.52L772.25 706.56l135.86 4.22 23.16-116.9zm-77.93-389.65l-2.1-188.5L773.3 43.1l80.03 161.13z"/><path d="M931.27 593.88l-203.25 25.27 44.23 87.4 159.02-112.68z"/><path d="M931.27 593.88l-189.56-35.8-13.7 61.08 203.25-25.27z"/><path d="M931.27 593.88l-86.35-107.42-103.2 71.6 189.56 35.8zm-33.7-289.6l-144.28-1.05 108.47 47.4 35.8-46.34z"/><path d="M897.58 304.27l-44.24-100.04-100.04 99 144.28 1.05z"/><path d="M853.34 204.23L773.3 43.1l-56.87 71.6 136.9 89.52zm-8.42 282.23l-45.28-4.2-57.93 75.82 103.2-71.6zm42.12-82.14l-25.27-53.7-72.66 57.92 97.93-4.2z"/><path d="M887.04 404.32l-97.93 4.2 55.8 77.93 42.12-82.14z"/><path d="M844.92 486.46l-55.8-77.93 10.53 73.72 45.28 4.2zm8.42-282.23l-136.9-89.52-9.48 20 146.38 69.5z"/><path d="M861.77 350.6l-109.52-6.32 36.86 64.24 72.66-57.92z"/><path d="M861.77 350.6l-108.47-47.4-1.05 41.07 109.52 6.32z"/><path d="M853.34 204.23l-146.38-69.5 46.34 168.5 100.04-99zm-53.7 278.02l-10.53-73.72-63.2 93.73 73.72-20z"/><path d="M799.64 482.25l-73.72 20 15.8 55.8 57.93-75.82zm-10.54-73.72l-36.86-64.24-49.5 26.33 86.36 37.9z"/><path d="M789.1 408.53l-86.36-37.9 23.17 131.64 63.2-93.73zm-35.8-105.3l-46.34-168.5-101.1 54.77L753.3 303.22z"/><path d="M741.7 558.07l-15.8-55.8-43.18 57.92 58.97-2.1zm-38.95-187.45l-95.83-21.06 15.8 102.15 80.04-81.1zm1118.4 414.93l-88.46-27.38-100.04 26.32 188.5 1.06zm16.85-386.5l-27.38 41.07 17.9-3.16 9.47-37.9z"/><path d="M1838 399.06l-9.47 37.9 3.16 7.37 6.3-45.28zm2.1 366.48l-51.6-24.22 32.64 44.23 18.96-20zm0-130.6l-46.34-48.44-22.1 86.35 68.45-37.9zm0-136.9l-29.5-57.92-97.94 13.7 127.43 44.23z"/><path d="M1840.1 498.05l-103.2 73.7 56.87 14.75 46.34-88.46z"/><path d="M1840.1 498.05l-8.42-53.7-21.07-4.2 29.5 57.92zm0 220.1l-51.6 2.1v21.07l51.6-23.17zm0-352.8l-37.9-41.08 14.74 30.54 23.17 10.54z"/><path d="M1840.1 365.36l-23.17-10.54 21.06 44.24 2.1-33.7z"/><path d="M1838 399.06l-71.6-26.33 44.23 67.4 27.38-41.07zm-27.38 41.07l-49.5-15.8-48.45 29.5 97.94-13.7z"/><path d="M1810.62 440.13l-44.23-67.4-5.26 51.6 49.5 15.8zm10.53 345.42l-32.64-44.23-55.82 16.85 88.46 27.38z"/><path d="M1788.5 741.32l-66.35-4.22 10.53 21.07 55.82-16.85z"/><path d="M1788.5 720.25l-66.35 16.85 66.35 4.22v-21.07z"/><path d="M1788.5 720.25l-16.85-47.4-49.5 64.24 66.35-16.85z"/><path d="M1771.66 672.86l-69.5 15.8 20 48.44 49.5-64.24zm-10.53-248.53l-34.76-37.9-13.7 67.4 48.45-29.5zm-28.43 333.84l-63.18-17.9-36.86 44.23 100.04-26.32z"/><path d="M1732.7 758.17l-10.53-21.07-52.65 3.16 63.18 17.9z"/><path d="M1702.15 688.66l-61.08 23.17 28.44 28.43 32.64-51.6z"/><path d="M1669.5 740.26l-28.44-28.43-8.42 72.66 36.86-44.23z"/><path d="M1641.07 711.83l-97.94 16.85 89.52 55.8 8.42-72.66z"/><path d="M1543.13 728.68l-4.2-34.75-37.9 82.14 42.12-47.4zm-42.13 47.4l-81.1-90.57-18.96 90.57H1501z"/><path d="M1400.96 776.07l-75.82-72.67 52.65 82.15 23.17-9.48zm-195.88 9.48l-204.3-28.44-80.04 28.44h284.34z"/><path d="M1205.08 785.55l-199.04-33.7-5.26 5.26 204.3 28.44z"/><path d="M1000.78 757.1l-48.44-61.08-14.75 14.75 63.2 46.33z"/><path d="M1000.78 757.1l-63.2-46.33-16.85 74.77 80.04-28.44z"/><path d="M937.6 710.78H908.1l12.63 74.77 16.85-74.77z"/><path d="M920.74 785.55l-12.63-74.77-24.23 65.3 36.86 9.48z"/><path d="M944.97 683.4l-36.86 27.4h29.48l7.38-27.4zm-36.87 27.38l-135.86-4.22 111.63 69.5 24.23-65.3zm-306.45 74.77l-365.43-10.53-15.8 7.37 381.23 3.16zM753.3 303.22L605.86 189.5l1.06 160.07 146.38-46.34z"/><path d="M753.3 303.22l-50.55 67.4 49.5-26.33 1.05-41.07zm-11.6 254.85l-58.97 2.1L728 619.14l13.7-61.08z"/><path d="M726.97 643.38l-115.84-9.48 12.64 132.7 103.2-123.2zm-24.22-272.76l-80.04 81.1 57.92 34.75 22.12-115.84zm23.17 131.64l-64.24 43.18 21.06 14.74 43.18-57.92z"/><path d="M728.02 619.15l-45.28-58.97-45.28 41.07 90.56 17.9zm-121.1-269.6l-1.06-160.07-61.08 82.14 62.14 77.93z"/><path d="M680.63 486.46L622.7 451.7l38.97 93.73 18.95-58.98zm2.1 73.72l-21.06-14.74-24.22 55.8 45.28-41.07z"/><path d="M661.68 545.44l-76.88 31.6 52.66 24.22 24.22-55.8zM570.06 755l-226.42-53.7-107.42 73.72 333.84-20z"/><path d="M572.16 160l-69.5 22.1 42.12 89.52L572.16 160zm-2.1 595l-10.53-146.4-131.64 13.7L570.06 755z"/><path d="M570.06 755L427.9 622.3l-22.12 45.3 164.3 87.4zm-15.8-418.08l-45.28 5.27 25.27 13.7 20-18.96z"/><path d="M544.78 271.63l-117.95 18.95 82.15 51.6 35.8-70.56z"/><path d="M544.78 271.63l-42.12-89.52-75.83 108.47 117.95-18.95z"/><path d="M505.82 86.28l-71.62 66.35 68.46 29.48 3.16-95.83zm-5.27 469.7l-82.14 54.76 9.48 11.58 72.66-66.34z"/><path d="M508.98 342.2l-73.72-18.96 30.54 78.98 43.18-60.02zm-8.43 213.77l-41.07-100.05-90.57 73.72 131.64 26.33z"/><path d="M343.64 701.3l-60.03 22.1-47.4 51.6 107.42-73.72zm156.9-145.33L368.9 529.64l49.5 81.1 82.14-54.76zM465.8 402.2l-53.7 45.3 47.4 8.42 6.32-53.7zm-30.54-78.97l-90.57 8.42 67.4 115.85 23.17-124.27z"/><path d="M412.1 447.5l-83.2 31.6 40.02 50.55 43.18-82.14zm-43.2 82.14l-96.88-21.06 46.33 143.22 50.55-122.16z"/><path d="M290.98 670.76l-18.95-162.18-85.3 159.02L291 670.76zM328.9 479.1l-12.63-27.38-44.23 56.87 56.86-29.5zm-68.46 21.05L130.9 519.1l55.8 148.5 73.72-167.45zM283.6 723.4l-74.77 2.1L236.2 775l47.4-51.6zm-63.18 59l-11.58-56.87-125.32 60.03 136.9-3.16z"/><path d="M208.84 725.52l-22.12-57.92-103.2 117.95 125.32-60.03z"/><path d="M186.72 667.6l-134.8-18.96 31.6 136.9 103.2-117.95z"/><path d="M186.72 667.6L79.3 570.7l-27.4 77.93 134.8 18.96zM100.37 140L93 46.26 1.38 59.95l99 80.04z"/><path d="M111.95 466.45l-55.8-38.96L1.38 537l110.57-70.56zm-60.03 182.2L1.38 709.72l43.17 46.34 7.37-107.42zM100.37 140l-99-80.04 28.43 139L100.37 140zm-13.7 236.94L11.9 352.72l44.23 74.77 30.54-50.55zm514.97 408.6l-381.23-3.16-136.9 3.16h518.13zm319.1 0l-172.7-4.22-128.48 4.22h301.2zm711.9-1.05L1501 776.07l-123.22 9.48 254.86-1.06zm207.45-134.8v-14.75l-68.45 37.9 68.45-23.16z"/><path d="M1840.1 718.15l-68.45-45.3 16.85 47.4 51.6-2.1zm-8.4-273.8l-3.16-7.37-17.9 3.16 21.07 4.2z"/><path d="M1793.77 586.5l-72.66 74.77 50.55 11.58 22.1-86.35z"/><path d="M1793.77 586.5l-56.87-14.75-15.8 89.52 72.66-74.77z"/><path d="M1771.66 672.86l-50.55-11.58-18.96 27.38 69.5-15.8zM1732.68 758l-63.25-17.68-36.7 44.36 99.95-26.68z"/><path d="M1722.16 737.1l-20-48.44-32.64 51.6 52.65-3.16zm-81.1-25.27l-88.46-24.22-9.48 41.07 97.94-16.85zm-8.42 72.67l-89.52-55.8-42.12 47.4 131.64 8.42zM1501 776.07h-100.05l-23.17 9.48 123.22-9.48z"/><path d="M1552.6 687.6l-13.7 6.32 4.2 34.75 9.48-41.07zm-631.86 97.95l-36.86-9.48-135.85 5.26 172.7 4.22zm113.74-703.48h-47.4l17.9 135.85 29.5-135.85zm743.5 146.38l-176.93 34.75 35.8 92.68 141.12-127.43zm-41.08 343.3l-24.22-117.94-36.86 107.4 61.08 10.53z"/><path d="M1736.9 571.76l-61.08-10.53-13.7 22.12 74.77-11.6z"/><path d="M1721.1 661.28l-58.98-77.93 40.02 105.3 18.96-27.38z"/><path d="M1702.15 688.66l-40.02-105.3-21.06 128.48 61.08-23.17zm-29.48-537.1l-31.6-27.38-72.66 50.55 104.26-23.17z"/><path d="M1672.67 151.57l-104.26 23.17 32.64 88.46 71.62-111.63zm3.15 409.66l-115.84 32.65 102.15-10.53 13.7-22.12z"/><path d="M1601.05 263.2l-32.64-88.46-6.32 69.5 38.96 18.95zm35.8 92.68L1557.88 279l9.48 92.67 69.5-15.8z"/><path d="M1641.07 711.83l-52.65-85.3-35.8 61.08 88.46 24.22zm0-587.63L1600 91.55l-31.6 83.2 72.66-50.55z"/><path d="M1567.36 371.67l-9.48-92.67-4.22 84.25 13.7 8.42zM1600 91.55L1529.44 41l38.97 133.74 31.6-83.2z"/><path d="M1557.88 279l-34.76 21.06 30.54 63.2 4.22-84.25z"/><path d="M1601.05 263.2l-38.96-18.95-4.2 34.75 43.17-15.8zm-12.63 363.33l-64.24-6.32 28.43 67.4 35.8-61.08zm-20.02-451.8L1529.44 41l-5.26-2.1 44.23 135.85z"/><path d="M1568.4 174.74L1524.18 38.9 1415.7 153.7l152.7 21.06zm10.54 266.44l-25.28-77.93-109.52 58.97 134.8 18.96z"/><path d="M1552.6 687.6l-28.43-67.4 14.74 73.72 13.7-6.32zm15.8-512.86l-152.7-21.06 146.38 90.57 6.32-69.5z"/><path d="M1523.12 300.06l-107.4-146.38-21.07 115.84 128.48 30.54z"/><path d="M1562.1 244.25l-38.97 55.8 34.76-21.06 4.2-34.75z"/><path d="M1562.1 244.25l-146.38-90.57 107.4 146.38 38.97-55.8z"/><path d="M1553.66 363.25l-30.54-63.2-78.98 122.16 109.52-58.97zM1524.18 38.9L1481 21l-65.3 132.7 108.47-114.8z"/><path d="M1523.12 300.06l-101.1 112.7 22.1 9.47 78.98-122.16z"/><path d="M1523.12 300.06l-128.48-30.54 27.4 143.23 101.1-112.7zm-78.98 122.16l-7.37 4.22-12.64 32.64 20-36.86z"/><path d="M1481 21l-152.7 11.58 87.4 121.1L1481 21zm-58.97 391.75l-27.4-143.23-15.8 134.8 43.18 8.43z"/><path d="M1444.14 422.22l-22.1-9.47 14.74 13.7 7.37-4.22z"/><path d="M1436.77 426.44l-41.07 25.27 28.43 7.37 12.64-32.64z"/><path d="M1436.77 426.44l-14.74-13.7-26.33 38.96 41.07-25.27zm-42.13-156.92l-71.6 123.22 55.82 11.58 15.8-134.8z"/><path d="M1415.7 153.68l-159 108.47 137.95 7.37 21.07-115.84zm6.33 259.07l-43.18-8.43 16.85 47.4 26.33-38.96z"/><path d="M1415.7 153.68l-87.4-121.1-128.48 103.2 215.9 17.9z"/><path d="M1415.7 153.68l-215.9-17.9 56.87 126.37 159.02-108.47zm-21.06 115.84l-140.06 6.32 68.45 116.9 71.6-123.22zm1.06 182.18l-40.02 68.45 29.5-3.16 10.53-65.3z"/><path d="M1395.7 451.7l-61.08 54.76 21.06 13.7 40.02-68.45z"/><path d="M1395.7 451.7l-16.85-47.4-55.82-11.58 72.67 58.97z"/><path d="M1395.7 451.7l-72.67-58.97 11.6 113.73 61.08-54.76zm-1.06-182.18l-137.95-7.37-2.1 13.7 140.06-6.32z"/><path d="M1323.03 392.74l-68.45-116.9-5.26 95.83 73.7 21.07z"/><path d="M1334.62 506.47l-11.6-113.73-65.3 32.64 76.88 81.1z"/><path d="M1334.62 506.47l-76.88-81.1 11.58 71.6 65.3 9.48zm-6.32-473.9l-60.03-24.22-14.74 4.2 74.77 20z"/><path d="M1328.3 32.57l-74.77-20-53.7 123.22 128.48-103.2z"/><path d="M1256.7 262.15l-56.87-126.37-9.48 89.5 66.35 36.86zm66.33 130.6l-73.7-21.07 8.42 53.7 65.3-32.64z"/><path d="M1253.53 12.56l-99 56.87 45.3 66.35 53.7-123.22zm15.8 484.44l-11.58-71.6-120.06 120.06L1269.32 497z"/><path d="M1249.32 371.67l-58.98-146.38-102.15 22.12 161.13 124.26zm4.2-359.1L1151.38 23.1l3.15 46.34 99-56.87z"/><path d="M1254.58 275.84l-64.24-50.55 58.98 146.38 5.26-95.83zm3.16 149.54l-184.3 62.14 64.24 57.92 120.06-120.06z"/><path d="M1257.74 425.38l-8.42-53.7-192.72 40.02 201.14 13.7z"/><path d="M1257.74 425.38l-201.14-13.7 16.84 75.83 184.3-62.14zm-8.42-53.7L1088.2 247.4l-38.97 95.83 200.1 28.43z"/><path d="M1256.7 262.15l-66.35-36.86 64.24 50.55 2.1-13.7zm-7.38 109.52l-200.1-28.43 7.38 68.45 192.72-40.02z"/><path d="M1088.2 247.4l-38.97 61.08v34.75l38.97-95.83zm102.14-22.1l-33.7-107.42-57.92 41.07 91.62 66.35z"/><path d="M1199.82 135.78l-43.18-17.9 33.7 107.42 9.48-89.5z"/><path d="M1199.82 135.78l-45.3-66.35 2.1 48.44 43.18 17.9zm-62.14 409.66l-64.24-57.92 40.02 52.65 24.22 5.27zm52.66-320.14l-91.62-66.35-10.53 88.47 102.15-22.12zm-35.8-155.87l-3.15-46.34-8.43 6.32 11.58 40.02z"/><path d="M1154.53 69.43L1130.3 38.9l-50.55 94.78 74.77-64.24z"/><path d="M1154.53 69.43l-11.58-40.02-12.64 9.48 24.22 30.54z"/><path d="M1156.64 117.87l-2.1-48.44-74.77 64.24 76.88-15.8z"/><path d="M1156.64 117.87l-76.88 15.8 18.96 25.27 57.92-41.07z"/><path d="M1130.3 38.9l-95.83 43.18 45.28 51.6 50.55-94.78zm-31.58 120.04l-38.97 70.56 28.44 17.9 10.53-88.47z"/><path d="M1088.2 247.4l-49.5 42.12 10.53 18.96 38.97-61.08zm-8.44-113.73l-21.06 95.83h1.05l20-95.83z"/><path d="M1079.76 133.67L1005 217.92l53.7 11.58 21.06-95.83z"/><path d="M1098.72 158.94l-18.96-25.27-20 95.83 38.97-70.56zm-25.28 328.58l-16.84-75.83-41.08 24.22 57.92 51.6z"/><path d="M1059.75 229.5h0l-21.06 60.03 49.5-42.12-28.44-17.9zm20-95.83l-45.28-51.6-29.5 135.85 74.77-84.25z"/><path d="M1059.75 229.5L1005 217.92l33.7 71.6 21.06-60.03zm-10.53 113.74V308.5l-81.1 60.02 81.1-25.27zm-43.18 408.6l-53.7-55.82 48.44 61.08 5.26-5.26z"/><path d="M952.34 696.03l-7.37-12.64-7.38 27.4 14.75-14.75zM773.3 43.1l-49.5 44.23-7.37 27.38 56.87-71.6zm110.58 732.97l-111.63-69.5-24.22 74.77 135.85-5.26z"/><path d="M748.03 781.33l-116.9-1.05-11.6 5.27L748 781.33zm24.22-74.77l-44.23-87.4-1.05 24.23 45.28 63.18zm-46.33-204.3l-23.17-131.64-22.12 115.84 45.3 15.8zM773.3 43.1l-81.1 33.7 31.6 10.53 49.5-44.23z"/><path d="M773.3 43.1l-94.78 18.96 13.7 14.74 81.1-33.7zm-1.05 663.46L623.77 766.6l124.26 14.74 24.22-74.77z"/><path d="M772.25 706.56l-45.28-63.18-103.2 123.2 148.48-60.03zm-24.22 74.77L623.77 766.6l7.37 13.7 116.9 1.05zm5.27-478.1l-146.38 46.34 95.83 21.06 50.55-67.4zm1.15.38L703.9 371l49.5-26.32 1.06-41.08z"/><path d="M725.92 502.26l-45.3-15.8-18.95 58.98 64.24-43.18zm2.1 116.9l-90.56-17.9 89.5 42.13 1.05-24.23z"/><path d="M726.97 643.38l-89.5-42.13-26.33 32.65 115.84 9.48zM723.8 87.33L692.2 76.8l24.22 37.9 7.37-27.38z"/><path d="M716.44 114.7l-24.22-37.9 14.74 57.92 9.48-20z"/><path d="M706.96 134.72L692.22 76.8 572.16 160l134.8-25.28z"/><path d="M706.96 134.72L572.16 160l33.7 29.5 101.1-54.77z"/><path d="M692.22 76.8l-13.7-14.74L572.16 160l120.06-83.2z"/><path d="M678.53 62.06L556.37 83.12l15.8 76.88 106.37-97.94z"/><path d="M678.53 62.06L567.95 58.9l-11.58 24.22 122.16-21.06zM623.77 766.6l-12.64-132.7L570.06 755l53.7 11.58z"/><path d="M661.68 545.44L622.7 451.7l-37.9 125.32 76.88-31.6zm-60.03 240.1L570.06 755l-333.84 20 365.43 10.53z"/><path d="M622.7 451.7l-106.36 90.57 68.45 34.75 37.9-125.32zm-15.78-102.14l-62.14-77.93 9.48 65.3 52.66 12.64z"/><path d="M622.7 451.7l-15.8-102.15-72.67 6.32 88.46 95.83zm1.07 314.9l-53.7-11.6 23.17 15.8 30.54-4.2z"/><path d="M637.46 601.25l-52.66-24.22 26.33 56.87 26.33-32.65zm-6.32 179.03l-7.37-13.7-4.22 18.96 11.6-5.27z"/><path d="M611.13 633.9l-51.6-25.28L570.06 755l41.07-121.1zm11.57-182.2l-88.46-95.83-51.6 54.76L622.7 451.7zm1.07 314.9l-22.12 18.96h17.9l4.22-18.96z"/><path d="M623.77 766.6l-30.54 4.2 8.42 14.75 22.12-18.96zm-12.64-132.7l-26.33-56.87-25.27 31.6 51.6 25.28zm11.57-182.2l-140.06-41.07 33.7 131.64L622.7 451.7z"/><path d="M516.35 542.28l-33.7-131.64-23.17 45.28 56.87 86.36zm90.57-192.72l-52.66-12.64-20 18.96 72.67-6.32zm-1.06-160.06l-33.7-29.5-27.38 111.63 61.08-82.14zm-4.2 596.05l-8.42-14.75-23.17-15.8 31.6 30.54z"/><path d="M584.8 577.03l-68.45-34.75 43.18 66.34 25.27-31.6z"/><path d="M559.53 608.62l-43.18-66.34-15.8 13.7 58.98 52.65zM570.06 755l-164.3-87.4-62.13 33.7L570.06 755zm2.1-595l-15.8-76.88-50.55 3.16L572.16 160z"/><path d="M572.16 160l-66.34-73.72-3.16 95.83 69.5-22.1zm-17.9 176.92l-9.48-65.3-35.8 70.56 45.28-5.27zm13.7-278.02l-45.28 14.74 33.7 9.48 11.58-24.22z"/><path d="M556.37 83.12l-33.7-9.48-16.85 12.64 50.55-3.16zm3.16 525.5l-58.98-52.65-72.66 66.34 131.64-13.7zM508.98 342.2l-82.15-51.6 8.43 32.65 73.72 18.96z"/><path d="M534.25 355.88l-25.27-13.7-26.33 68.45 51.6-54.76zm-31.6-173.78l-103.2 22.12 27.38 86.35 75.83-108.47z"/><path d="M508.98 342.2l-43.18 60 16.85 8.43 26.33-68.45zm7.37 200.08l-56.87-86.36 41.07 100.05 15.8-13.7zm-10.53-456l-86.36 4.2 14.74 62.14 71.62-66.35z"/><path d="M502.66 182.1l-68.46-29.48-34.75 51.6 103.2-22.12zm-43.18 273.82l-47.4-8.42-43.18 82.14 90.57-73.72z"/><path d="M482.65 410.64l-16.85-8.43-6.32 53.7 23.17-45.28z"/><path d="M465.8 402.2l-30.54-78.98L412.1 447.5l53.7-45.3zm-37.9 220.1l-28.44 1.06 6.32 44.23 22.12-45.3zm6.3-469.67L419.46 90.5l-51.6 68.45 66.34-6.3z"/><path d="M434.2 152.63l-66.34 6.3 31.6 45.3 34.75-51.6zm1.06 170.6l-8.43-32.65-82.14 41.07 90.57-8.42z"/><path d="M412.1 447.5l-67.4-115.85-28.43 120.06 95.83-4.2zm6.3 163.23l-49.5-81.1 30.54 93.73 18.96-12.64zm8.43-320.15l-27.38-86.35-62.13 3.16 89.5 83.2z"/><path d="M426.83 290.58l-89.5-83.2 7.37 124.26 82.14-41.07zm1.07 331.72l-9.48-11.58-18.96 12.64 28.44-1.06zm-8.44-531.8l-133.74 6.3 82.14 62.13 51.6-68.45zm-7.36 357l-95.83 4.2 12.63 27.38 83.2-31.6z"/><path d="M399.45 623.37l-30.54-93.73-50.55 122.16 81.1-28.43z"/><path d="M405.77 667.6l-6.32-44.23-81.1 28.43 87.4 15.8z"/><path d="M405.77 667.6l-87.4-15.8 25.28 49.5 62.13-33.7zm-6.32-463.37l-31.6-45.3-30.54 48.45 62.13-3.16z"/><path d="M343.64 701.3l-25.28-49.5-5.26 20 30.54 29.5zm1.06-369.65l-7.37-124.26-44.23-12.64 51.6 136.9zm23.16-172.7L285.72 96.8l7.37 97.94 74.77-35.8zm1.04 370.7l-40-50.54-56.86 29.5 96.88 21.06z"/><path d="M367.86 158.94l-74.77 35.8 44.23 12.64 30.54-48.45zm-51.6 292.76L205.68 302.17l-44.23 70.56 154.8 78.98zm27.38 249.6l-30.54-29.5-10.53 17.9 41.07 11.6z"/><path d="M343.64 701.3l-41.07-11.6-18.96 33.7 60.03-22.1zm1.06-369.65l-139-29.48L316.26 451.7l28.43-120.06z"/><path d="M344.7 331.65l-51.6-136.9-87.4 107.42 139 29.48zM318.36 651.8l-46.33-143.22 18.95 162.18 27.38-18.96z"/><path d="M293.1 194.75l-34.75-8.42-52.66 115.84 87.4-107.42z"/><path d="M293.1 194.75l-7.37-97.94-27.38 89.52 34.75 8.42zm23.16 256.95l-154.8-78.98 99 127.42 55.82-48.44z"/><path d="M316.26 451.7l-55.82 48.44 11.6 8.43 44.23-56.87zm2.1 200.1l-27.38 18.96 22.12 1.05 5.26-20z"/><path d="M313.1 671.8l-22.12-1.05 11.6 18.95 10.53-17.9z"/><path d="M302.57 689.7l-11.6-18.95-7.37 52.65 18.96-33.7zm-30.54-181.12l-11.6-8.43L186.7 667.6 272 508.58z"/><path d="M285.72 96.8L178.3 163.16l80.04 23.17 27.38-89.52zm5.26 573.96l-82.14 54.76 74.77-2.1 7.37-52.65z"/><path d="M290.98 670.76l-104.26-3.16 22.12 57.92 82.14-54.76zm-30.54-170.6l-99-127.42-30.54 96.88 129.53 30.54zm-2.1-313.82l-115.85 33.7 63.2 82.14 52.66-115.84z"/><path d="M205.68 302.17l-63.2-82.14 22.12 69.5 41.07 12.64zm52.66-115.84l-80.04-23.17-35.8 56.87 115.85-33.7zm2.1 313.82L130.9 469.6v49.5l129.53-18.96zm-24.22 274.87l-27.38-49.5 11.58 56.87 15.8-7.37z"/><path d="M178.3 163.16L93 46.26l7.37 93.73 77.93 23.17zm8.42 504.44l-55.8-148.5-51.6 51.6 107.4 96.9zm18.96-365.43l-41.07-12.64-3.16 83.2 44.23-70.56zM83.52 785.55l-31.6-136.9-7.37 107.42 38.97 29.5z"/><path d="M164.6 289.53l-69.5 30.54 66.35 52.66 3.16-83.2z"/><path d="M161.45 372.73l-49.5 93.72 18.96 3.16 30.54-96.88z"/><path d="M161.45 372.73l-74.77 4.2 25.27 89.5 49.5-93.72zm16.85-209.57L100.37 140l42.12 80.04 35.8-56.87z"/><path d="M142.5 220.03L100.37 140l10.53 84.25 31.6-4.2zm18.95 152.7L95.1 320.07l-8.42 56.87 74.77-4.2z"/><path d="M164.6 289.53l-22.12-69.5-31.6 4.2 53.7 65.3z"/><path d="M164.6 289.53l-53.7-65.3-15.8 95.83 69.5-30.54zM79.3 570.7l-32.65 35.8 5.26 42.12 27.4-77.93zm32.65-104.25l-25.27-89.5-30.54 50.55 55.8 38.96z"/><path d="M130.9 469.6l-18.96-3.16 18.96 52.66v-49.5z"/><path d="M130.9 519.1l-18.96-52.66L79.3 570.7l51.6-51.6zm-20-294.86l-88.46 7.37 72.66 88.46 15.8-95.83z"/><path d="M110.9 224.24L100.37 140 29.8 198.96l81.1 25.28zM93 46.26l-9.48-6.32-82.14 20L93 46.26zm2.1 273.8L22.44 231.6l-11.6 15.8 84.25 72.66zm16.85 146.38L1.38 537l77.93 33.7 32.64-104.26z"/><path d="M110.9 224.24l-81.1-25.28-7.37 32.65 88.46-7.37zm-27.38 561.3l-38.97-29.5 24.23 29.5h14.74zM95.1 320.07l-83.2 32.65 74.77 24.22 8.42-56.87z"/><path d="M95.1 320.07L10.85 247.4l1.06 105.3 83.2-32.65zM56.14 427.5L11.9 352.72 1.38 365.36l54.76 62.13zM79.3 570.7l-40 29.5 7.37 6.32 32.65-35.8z"/><path d="M79.3 570.7L1.38 537l37.9 63.2 40.02-29.5z"/><path d="M51.92 648.64l-5.26-42.12-7.37-6.32 12.63 48.44z"/><path d="M51.92 648.64L39.3 600.2 1.38 709.72l50.54-61.08zM11.9 352.72l-1.06-105.3-9.47 115.84 10.53-10.53z"/><path d="M11.9 352.72L1.38 363.25v2.1L11.9 352.7zM24.35.5l59.17 39.44L69.93.5H24.35z"/><path d="M69.93.5l13.6 39.44L112.08.5H69.93z"/><path d="M112.08.5L83.52 39.94 93 46.26 116.6.5h-4.5z"/><path d="M116.6.5L93 46.26 186.85.5H116.6z"/><path d="M186.85.5L93 46.26l85.3 116.9L216.57.5h-29.72z"/><path d="M216.57.5L178.3 163.16 285.72 96.8 229.9.5h-13.34z"/><path d="M229.9.5l55.8 96.3L276.54.5H229.9z"/><path d="M276.54.5l9.18 96.3L360.43.5h-83.9zm103.72 0l39.2 90 86.32-90H380.26z"/><path d="M360.43.5l-74.7 96.3 133.74-6.32-39.2-90h-19.83z"/><path d="M505.78.5l-86.32 90 86.36-4.2L516.77.5h-11z"/><path d="M516.77.5l-10.95 85.78 16.85-12.64L519.1.5h-2.33z"/><path d="M519.1.5l3.57 73.14 45.28-14.74L527.6.5h-8.5z"/><path d="M527.6.5l40.36 58.4L591.6.5H527.6z"/><path d="M591.6.5l-23.66 58.4L631.38.5H591.6zm44.54 0l42.4 61.56L654.92.5h-18.78z"/><path d="M654.92.5l23.6 61.56L773.3 43.1 681.9.5h-27zm95.54 0l100.78 15.22 15-15.22H750.46z"/><path d="M681.9.5l91.4 42.6 77.93-27.38L750.46.5H681.9z"/><path d="M866.23.5l-15 15.22L894.4 3.08 895.6.5h-29.36z"/><path d="M895.6.5l-1.18 2.58L897.4.5h-1.8z"/><path d="M897.4.5l-2.98 2.58 61.1 4.22-3.68-6.8H897.4z"/><path d="M951.82.5l3.68 6.8 3.9-6.8h-7.6z"/><path d="M959.53.5l-4.03 6.8 75.82 6.32L1023.86.5h-64.33z"/><path d="M1023.86.5l7.46 13.12 1.6-13.12h-9.07z"/><path d="M1034.35.5l-3.03 13.12L1055.07.5h-20.72z"/><path d="M1055.07.5l-23.75 13.12 99 25.27-17-38.4h-58.25zm150.2 0l48.25 12.06L1267.3.5h-62z"/><path d="M1128.3.5l23.1 22.6 102.15-10.53L1205.28.5h-77zm-14.98 0l17 38.4 12.64-9.48L1121.27.5h-7.95z"/><path d="M1121.27.5l21.68 28.9 8.43-6.32L1128.3.5h-7.02zm146.03 0l-13.76 12.06 14.74-4.2L1276 .5h-8.7z"/><path d="M1276 .5l-7.72 7.85 60.03 24.22.77-32.07H1276z"/><path d="M1353.03.5l-24.73 32.07L1481 21 1457.95.5h-104.92z"/><path d="M1483 .5l-2 20.5 43.18 17.9L1509.5.5H1483z"/><path d="M1509.5.5l14.67 38.4 5.26 2.1L1512.1.5h-2.58z"/><path d="M1512.1.5l17.35 40.5 43.5-40.5h-60.85z"/><path d="M1572.94.5l-43.5 40.5L1601.36.5h-28.42z"/><path d="M1601.36.5L1529.44 41 1600 91.55 1630.92.5h-29.56z"/><path d="M1630.92.5L1600 91.55l60.03-11.6L1642.46.5h-11.54z"/><path d="M1642.46.5l17.57 79.46 67.4-10.53L1658.5.5h-16.04z"/><path d="M1658.5.5l68.93 68.93 37.9-68.45-2.9-.48H1658.5z"/><path d="M1769.1.5l-3.77.48 46.34 57.92L1836.3.5h-67.2zM636.14.5h-4.76l-63.43 58.4 110.58 3.16L636.14.5z"/></g></g></svg>